<?xml version="1.0" encoding="UTF-8" standalone="no"?>
<!DOCTYPE svg PUBLIC "-//W3C//DTD SVG 1.1//EN" "http://www.w3.org/Graphics/SVG/1.1/DTD/svg11.dtd">
<svg width="100%" height="100%" viewBox="0 0 192 210" version="1.1" xmlns="http://www.w3.org/2000/svg" xmlns:xlink="http://www.w3.org/1999/xlink" xml:space="preserve" xmlns:serif="http://www.serif.com/" style="fill-rule:evenodd;clip-rule:evenodd;stroke-linejoin:round;stroke-miterlimit:2;">
    <g transform="matrix(1,0,0,1,-5.97721,-4.01228)">
        <path d="M127,6.4C124.9,3.9 121.4,3.3 118.6,4.9L116,6.3L87.7,22.4L94.3,34L112.7,23.5L108.2,48.1L121.3,50.5L125.9,25.8L139.5,42L149.7,33.4L129.1,8.8L129,8.8L127,6.4ZM87.3,213.9C94.1,213.9 99.6,208.5 99.6,201.9C99.6,195.3 94.1,189.9 87.3,189.9C80.5,189.9 75,195.3 75,201.9C74.9,208.5 80.5,213.9 87.3,213.9ZM103.8,148L99.4,172.7L86.2,170.3L90.6,145.7L72.2,156.3L65.5,144.7L93.6,128.6L96.2,127.1C99,125.5 102.5,126.1 104.6,128.6L106.6,131L127.5,155.5L117.3,164.2L103.8,148ZM114.5,89L110.1,113.7L96.9,111.3L101.3,86.8L83,97.3L76.4,85.7L104.4,69.7L104.4,69.5L104.6,69.5L107.2,68C110,66.4 113.5,67 115.6,69.5L117.6,71.8L138.4,96.4L128.2,105.1L114.5,89ZM28.2,186.6L28.1,186.6L25.4,185.8C22.5,185 20.6,182.2 20.8,179.2L23.2,145.8L35.9,146.7L34.4,167L54.1,153.6L61.2,164.1L41.9,177.2L61.6,182.9L58.1,195.1L28.2,186.6ZM158.9,200.4L158,203.3C157.1,206.1 154.5,208 151.5,207.8L148.7,207.6L148.5,207.7L148.4,207.6L117.4,205.5L118.2,192.8L138.8,194.2L125.3,175.3L135.6,167.9L149.4,187.3L155.4,167.7L167.5,171.4L158.9,200.4ZM195.3,131.6L196.8,134.3C198.3,137 197.7,140.4 195.3,142.4L193.1,144.3L193.1,144.4L193,144.4L168.9,164.8L160.5,154.9L176.3,141.5L152.6,137.3L154.9,124.5L178.8,128.7L168.8,110.7L180.1,104.4L195.3,131.6ZM170.8,75.8L149.4,87.3L143.2,75.9L164.3,64.6L145,56.7L149.9,44.7L179.3,56.6L179.4,56.5L179.5,56.7L182.2,57.8C185.1,59 186.7,62 186.2,65L185.7,68L180.2,98.5L167.4,96.2L170.8,75.8ZM27.2,102.6L51,106.6L48.8,119.4L24.8,115.3L35,133.3L23.7,139.7L8.3,112.6L6.8,110C5.3,107.3 5.9,103.9 8.2,101.9L10.4,100L10.4,99.9L10.5,99.9L34.3,79.4L42.8,89.3L27.2,102.6ZM63.1,47.2L78.9,64.8L69.2,73.5L53,55.5L49.3,76L36.5,73.7L42.1,43.3L42.7,40.2C43.2,37.2 45.8,35 48.8,34.9L51.6,34.8L51.7,34.7L51.8,34.8L83.6,33.5L84.1,46.5L63.1,47.2Z" style="fill:rgb(17,17,17);"/>
    </g>
</svg>
