<?xml version="1.0" standalone="no"?>
<!DOCTYPE svg PUBLIC "-//W3C//DTD SVG 20010904//EN"
 "http://www.w3.org/TR/2001/REC-SVG-20010904/DTD/svg10.dtd">
<svg version="1.0" xmlns="http://www.w3.org/2000/svg"
 width="1280.000000pt" height="1280.000000pt" viewBox="0 0 1280.000000 1280.000000"
 preserveAspectRatio="xMidYMid meet">

<g transform="translate(0.000000,1280.000000) scale(0.100000,-0.100000)"
fill="#000000" stroke="none">
<path d="M0 6400 l0 -6400 6400 0 6400 0 0 6400 0 6400 -6400 0 -6400 0 0
-6400z m8165 783 c968 -1677 1830 -3169 1916 -3318 l156 -270 -1919 -3 c-1055
-1 -2781 -1 -3837 0 l-1918 3 369 640 c513 886 1985 3437 2791 4833 369 639
674 1162 677 1162 3 0 798 -1371 1765 -3047z"/>
</g>
</svg>
